<?xml version="1.0" standalone="no"?>
<svg xmlns="http://www.w3.org/2000/svg" viewBox="0 0 186.408 29" width="186.408" height="29"><g fill="#2677e5" color="#2677e5" transform="translate(0, 0) scale(0.29)"><svg width="100.0" height="100.0" x="0.0" y="0.0" viewBox="0 0 100 100"><path d="M35.898,83.668c0,1.192,0.966,2.158,2.158,2.158H71.15c1.192,0,2.158-0.966,2.158-2.158c0-1.192-0.966-2.158-2.158-2.158  h0.242c-7.548-0.949-8.168-6.002-8.213-7.116h25.124c2.674,0,4.853-2.117,4.956-4.766h0.003v-0.106  c0.001-0.03,0.002-0.059,0.002-0.089V69.02c0-0.03-0.002-0.059-0.002-0.089v-7.532c0-0.023,0.002-0.046,0.002-0.069V19.805  c0-3.105-2.526-5.631-5.631-5.631H72.703h-1.606H38.036h-3.195H21.455c-3.105,0-5.631,2.526-5.631,5.631v20.314h4.644V19.805  c0-0.544,0.443-0.987,0.987-0.987h13.386h3.195h33.061h1.606h14.929c0.544,0,0.987,0.443,0.987,0.987V61.33  c0,0.544-0.443,0.987-0.987,0.987H34.78v12.077h11.128c-0.045,1.114-0.665,6.167-8.213,7.116h0.361  C36.864,81.51,35.898,82.476,35.898,83.668z M51.788,68.84c0-1.521,1.233-2.754,2.754-2.754c1.521,0,2.754,1.233,2.754,2.754  c0,1.521-1.233,2.754-2.754,2.754C53.021,71.594,51.788,70.361,51.788,68.84z M6.737,48.944v30.934c0,3.285,2.663,5.949,5.949,5.949  h12.849c3.285,0,5.949-2.663,5.949-5.949V48.944c0-3.285-2.663-5.949-5.949-5.949H12.686C9.401,42.995,6.737,45.658,6.737,48.944z   M16.706,80.119c0-1.328,1.077-2.404,2.404-2.404s2.404,1.076,2.404,2.404s-1.076,2.404-2.404,2.404S16.706,81.447,16.706,80.119z   M69.678,54.993c0.005,0.035,0.008,0.071,0.008,0.108v1.717c0,0.466-0.378,0.844-0.844,0.844h-4.35  c-0.466,0-0.844-0.378-0.844-0.844v-1.465v-15.78l0.04-0.041c0.024-0.024,0.047-0.049,0.07-0.074  c-0.01,0.01-0.018,0.021-0.028,0.031c0.031-0.032,0.174-0.174,0.344-0.345l3.731-3.731l0.005,0.005l1.819-1.819l0.014-0.014  L69.678,54.993z M69.678,54.993c0.005,0.035,0.008,0.071,0.008,0.108v1.717c0,0.466-0.378,0.844-0.844,0.844h-4.35  c-0.466,0-0.844-0.378-0.844-0.844v-1.465v-15.78l0.04-0.041c0.024-0.024,0.047-0.049,0.07-0.074  c-0.01,0.01-0.018,0.021-0.028,0.031c0.031-0.032,0.174-0.174,0.344-0.345l3.731-3.731l0.005,0.005l1.819-1.819l0.014-0.014  L69.678,54.993z M61.842,41.379v13.722v0v1.717c0,0.466-0.378,0.844-0.844,0.844h-4.35c-0.466,0-0.844-0.378-0.844-0.844v-1.717  c0,0,0,0,0,0v-7.746c0.141-0.1,0.276-0.213,0.401-0.338L61.842,41.379z M53.998,47.921v7.18v0v1.717  c0,0.466-0.378,0.844-0.844,0.844h-4.35c-0.466,0-0.844-0.378-0.844-0.844v-1.717v0v-9.056l1.451-1.451l2.423,2.423  C52.412,47.595,53.18,47.916,53.998,47.921z M41.979,52.022c0.071-0.07,0.168-0.166,0.274-0.272l3.9-3.9v7.251c0,0,0,0,0,0v1.717  c0,0.466-0.378,0.844-0.844,0.844h-4.35c-0.466,0-0.844-0.378-0.844-0.844v-1.717v0v-1.226l1.403-1.403  c0.171-0.171,0.274-0.271,0.297-0.293 M74.547,24.474l-1.748,8.039c-0.079,0.364-0.264,0.789-0.523,0.789  c-0.072,0-0.336-0.03-0.728-0.422l-1.936-1.933l-0.65,0.65l-0.005-0.006l-2.706,2.706l-8.315,8.315l-3.247,3.247  c-0.335,0.335-0.879,0.335-1.214,0l-1.578-1.578c-0.026-0.026-0.049-0.053-0.071-0.081c-0.028-0.022-0.055-0.045-0.081-0.071  l-2.079-2.079l-0.57,0.57l0,0L37.534,54.183c-0.335,0.335-0.879,0.335-1.214,0l-0.07-0.07c-0.063-0.025-0.123-0.063-0.174-0.114  l-1.436-1.436c-0.123-0.123-0.169-0.293-0.142-0.453c-0.034-0.256,0.046-0.524,0.243-0.72l2.429-2.429l0,0l10.31-10.31l1.252-1.252  l0.326-0.326c0.335-0.335,0.879-0.335,1.214,0l3.809,3.809l1.062-1.062l8.315-8.315l3.247-3.247  c0.036-0.036,0.076-0.068,0.116-0.097l-1.928-1.925c-0.37-0.369-0.454-0.661-0.413-0.8c0.041-0.138,0.269-0.339,0.78-0.449  l8.051-1.745c0.147-0.032,0.287-0.048,0.417-0.048c0.217,0,0.513,0.046,0.691,0.266C74.597,23.678,74.642,24.039,74.547,24.474z"></path></svg></g><line x1="41" y1="1" x2="41" y2="28" stroke="#ffffff" stroke-linecap="round"></line><path fill="#ffffff" fill-rule="nonzero" d="M0 16.49Q0 15.74 0.12 15.41L0.12 15.41Q0.70 15.36 1.01 15.22Q1.32 15.07 1.45 14.69Q1.58 14.30 1.58 13.54L1.58 13.54L1.58 7.22Q1.58 6.53 1.45 6.17Q1.32 5.81 1.02 5.66Q0.72 5.52 0.12 5.47L0.12 5.47Q0.02 5.09 0.02 4.39L0.02 4.39Q1.37 4.44 3.12 4.44L3.12 4.44Q3.91 4.44 4.32 4.42L4.32 4.42L5.59 4.39Q9.07 4.39 11.32 5.62Q13.56 6.84 13.56 10.13L13.56 10.13Q13.56 13.87 11.02 15.16Q8.47 16.44 5.57 16.44L5.57 16.44Q2.11 16.44 0 16.49L0 16.49ZM5.66 15.36Q7.39 15.36 8.58 14.96Q9.77 14.57 10.48 13.49Q11.18 12.41 11.18 10.44L11.18 10.44Q11.18 7.78 9.52 6.60Q7.85 5.42 5.28 5.42L5.28 5.42Q4.30 5.42 3.79 5.57L3.79 5.57L3.79 13.49Q3.79 14.26 3.94 14.65Q4.08 15.05 4.48 15.20Q4.87 15.36 5.66 15.36L5.66 15.36ZM26.50 13.03Q27.14 13.15 27.55 13.56L27.55 13.56Q27.12 14.69 26.90 16.46L26.90 16.46L22.27 16.44Q18.82 16.44 16.70 16.49L16.70 16.49Q16.70 15.74 16.82 15.41L16.82 15.41Q17.42 15.36 17.72 15.22Q18.02 15.07 18.14 14.69Q18.26 14.30 18.26 13.54L18.26 13.54L18.26 7.22Q18.26 6.53 18.13 6.17Q18 5.81 17.70 5.66Q17.40 5.52 16.82 5.47L16.82 5.47Q16.70 5.11 16.70 4.39L16.70 4.39Q18.43 4.44 20.47 4.44L20.47 4.44Q24.89 4.44 26.38 4.39L26.38 4.39Q26.64 6.65 26.83 7.37L26.83 7.37Q26.42 7.63 25.75 7.63L25.75 7.63Q25.66 6.62 24.92 6.05Q24.19 5.47 22.34 5.47L22.34 5.47L20.47 5.47L20.47 9.89L21.67 9.89Q22.94 9.89 23.44 9.60Q23.93 9.31 23.95 8.54L23.95 8.54Q24.48 8.38 25.06 8.38L25.06 8.38Q25.01 8.98 25.01 10.39L25.01 10.39Q25.01 11.93 25.06 12.48L25.06 12.48Q24.41 12.48 24 12.34L24 12.34Q23.93 11.54 23.44 11.26Q22.94 10.97 21.67 10.97L21.67 10.97L20.47 10.97L20.47 13.49Q20.47 14.26 20.63 14.65Q20.78 15.05 21.18 15.20Q21.58 15.36 22.37 15.36L22.37 15.36L22.51 15.36Q23.90 15.36 24.66 15.12Q25.42 14.88 25.79 14.41Q26.16 13.94 26.50 13.03L26.50 13.03ZM41.50 4.44Q42.43 4.44 43.63 4.39L43.63 4.39Q43.63 5.04 43.51 5.42L43.51 5.42Q42.55 5.59 41.76 7.42L41.76 7.42Q39.86 11.59 37.34 16.46L37.34 16.46Q36.98 16.58 36.41 16.58L36.41 16.58Q34.18 11.74 32.04 7.61L32.04 7.61Q31.51 6.55 31.28 6.18Q31.06 5.81 30.83 5.64Q30.60 5.47 30.22 5.42L30.22 5.42Q30.10 5.09 30.10 4.39L30.10 4.39Q31.25 4.44 32.74 4.44L32.74 4.44Q33.67 4.44 35.40 4.39L35.40 4.39Q35.40 4.99 35.28 5.42L35.28 5.42Q34.66 5.47 34.36 5.62Q34.06 5.76 34.06 6.10L34.06 6.10Q34.06 6.53 34.51 7.34L34.51 7.34Q36.19 10.46 37.51 13.49L37.51 13.49Q39.48 9.65 40.46 7.44L40.46 7.44Q40.75 6.79 40.75 6.34L40.75 6.34Q40.75 5.52 39.74 5.42L39.74 5.42Q39.62 5.09 39.62 4.39L39.62 4.39Q40.82 4.44 41.50 4.44L41.50 4.44ZM46.54 16.49Q46.54 15.74 46.66 15.41L46.66 15.41Q47.26 15.36 47.56 15.22Q47.86 15.07 47.98 14.71Q48.10 14.35 48.10 13.63L48.10 13.63L48.10 7.22Q48.10 6.53 47.98 6.17Q47.86 5.81 47.56 5.66Q47.26 5.52 46.66 5.47L46.66 5.47Q46.54 5.11 46.54 4.39L46.54 4.39Q48.07 4.44 49.22 4.44L49.22 4.44Q50.18 4.44 51.86 4.39L51.86 4.39Q51.86 5.14 51.77 5.47L51.77 5.47Q50.90 5.52 50.60 5.86Q50.30 6.19 50.30 7.22L50.30 7.22L50.30 13.63Q50.30 14.66 50.60 15.01Q50.90 15.36 51.77 15.41L51.77 15.41Q51.86 15.77 51.86 16.49L51.86 16.49Q50.23 16.44 49.22 16.44L49.22 16.44Q48.02 16.44 46.54 16.49L46.54 16.49ZM66.77 5.21Q66.53 6.12 66.53 7.94L66.53 7.94Q66.07 8.16 65.33 8.16L65.33 8.16Q65.26 6.60 64.48 5.96Q63.70 5.33 62.23 5.33L62.23 5.33Q59.83 5.33 58.63 6.65Q57.43 7.97 57.43 9.89L57.43 9.89Q57.43 11.40 58.07 12.61Q58.70 13.82 59.89 14.52Q61.08 15.22 62.71 15.22L62.71 15.22Q63.70 15.22 64.73 14.99Q65.76 14.76 66.62 14.33L66.62 14.33Q66.77 14.45 66.89 14.68Q67.01 14.90 67.03 15.10L67.03 15.10Q65.69 15.86 64.49 16.24Q63.29 16.61 61.78 16.61L61.78 16.61Q59.81 16.61 58.27 15.82Q56.74 15.02 55.87 13.61Q55.01 12.19 55.01 10.37L55.01 10.37Q55.01 8.42 55.99 7.04Q56.98 5.66 58.60 4.97Q60.22 4.27 62.09 4.27L62.09 4.27Q63.36 4.27 64.46 4.50Q65.57 4.73 66.77 5.21L66.77 5.21ZM79.85 13.03Q80.50 13.15 80.90 13.56L80.90 13.56Q80.47 14.69 80.26 16.46L80.26 16.46L75.62 16.44Q72.17 16.44 70.06 16.49L70.06 16.49Q70.06 15.74 70.18 15.41L70.18 15.41Q70.78 15.36 71.08 15.22Q71.38 15.07 71.50 14.69Q71.62 14.30 71.62 13.54L71.62 13.54L71.62 7.22Q71.62 6.53 71.48 6.17Q71.35 5.81 71.05 5.66Q70.75 5.52 70.18 5.47L70.18 5.47Q70.06 5.11 70.06 4.39L70.06 4.39Q71.78 4.44 73.82 4.44L73.82 4.44Q78.24 4.44 79.73 4.39L79.73 4.39Q79.99 6.65 80.18 7.37L80.18 7.37Q79.78 7.63 79.10 7.63L79.10 7.63Q79.01 6.62 78.28 6.05Q77.54 5.47 75.70 5.47L75.70 5.47L73.82 5.47L73.82 9.89L75.02 9.89Q76.30 9.89 76.79 9.60Q77.28 9.31 77.30 8.54L77.30 8.54Q77.83 8.38 78.41 8.38L78.41 8.38Q78.36 8.98 78.36 10.39L78.36 10.39Q78.36 11.93 78.41 12.48L78.41 12.48Q77.76 12.48 77.35 12.34L77.35 12.34Q77.28 11.54 76.79 11.26Q76.30 10.97 75.02 10.97L75.02 10.97L73.82 10.97L73.82 13.49Q73.82 14.26 73.98 14.65Q74.14 15.05 74.53 15.20Q74.93 15.36 75.72 15.36L75.72 15.36L75.86 15.36Q77.26 15.36 78.01 15.12Q78.77 14.88 79.14 14.41Q79.51 13.94 79.85 13.03L79.85 13.03ZM89.18 16.61Q87.86 16.61 86.80 16.34Q85.73 16.08 84.48 15.55L84.48 15.55Q84.74 13.94 84.67 12.77L84.67 12.77Q85.20 12.60 85.97 12.60L85.97 12.60Q86.02 14.09 86.92 14.76Q87.82 15.43 89.45 15.43L89.45 15.43Q90.84 15.43 91.64 15.00Q92.45 14.57 92.45 13.85L92.45 13.85Q92.45 13.34 92.05 12.97Q91.66 12.60 91.09 12.35Q90.53 12.10 89.45 11.71L89.45 11.71Q87.96 11.21 87.06 10.76Q86.16 10.32 85.50 9.54Q84.84 8.76 84.84 7.58L84.84 7.58Q84.84 5.98 86.05 5.14Q87.26 4.30 89.38 4.30L89.38 4.30Q90.50 4.30 91.62 4.51Q92.74 4.73 93.36 5.06L93.36 5.06Q93.34 5.33 93.34 5.88L93.34 5.88Q93.34 6.96 93.48 7.58L93.48 7.58Q92.98 7.85 92.16 7.85L92.16 7.85Q91.82 6.48 91.07 5.94Q90.31 5.40 89.21 5.40L89.21 5.40Q88.15 5.40 87.49 5.76Q86.83 6.12 86.83 6.82L86.83 6.82Q86.83 7.61 87.60 8.09Q88.37 8.57 90 9.14L90 9.14Q91.39 9.62 92.28 10.06Q93.17 10.49 93.79 11.22Q94.42 11.95 94.42 13.06L94.42 13.06Q94.42 14.64 93.12 15.62Q91.82 16.61 89.18 16.61L89.18 16.61ZM99.29 3.26Q99.29 2.06 98.94 1.64Q98.59 1.22 97.63 1.18L97.63 1.18Q97.51 0.84 97.51 0.14L97.51 0.14Q98.83 0.22 100.42 0.22L100.42 0.22Q101.88 0.22 103.32 0.14L103.32 0.14Q103.32 0.84 103.20 1.18L103.20 1.18Q102.24 1.22 101.89 1.64Q101.54 2.06 101.54 3.26L101.54 3.26L101.54 13.39Q101.54 14.59 101.89 15.01Q102.24 15.43 103.20 15.48L103.20 15.48Q103.32 15.82 103.32 16.51L103.32 16.51Q101.88 16.44 100.42 16.44L100.42 16.44Q98.74 16.44 97.51 16.51L97.51 16.51Q97.51 15.82 97.63 15.48L97.63 15.48Q98.59 15.43 98.94 15.01Q99.29 14.59 99.29 13.39L99.29 13.39L99.29 3.26ZM113.42 16.66Q111.10 16.66 109.30 15.56Q107.50 14.47 106.50 12.56Q105.50 10.66 105.50 8.28L105.50 8.28Q105.50 5.88 106.55 4.00Q107.59 2.11 109.40 1.06Q111.22 0 113.42 0L113.42 0Q115.70 0 117.52 1.04Q119.33 2.09 120.35 3.97Q121.37 5.86 121.37 8.28L121.37 8.28Q121.37 10.63 120.35 12.54Q119.33 14.45 117.52 15.55Q115.70 16.66 113.42 16.66L113.42 16.66ZM113.90 15.48Q115.42 15.48 116.56 14.62Q117.70 13.75 118.30 12.25Q118.90 10.75 118.90 8.90L118.90 8.90Q118.90 6.77 118.12 4.99Q117.34 3.22 115.97 2.18Q114.60 1.15 112.92 1.15L112.92 1.15Q111.50 1.15 110.38 1.97Q109.25 2.78 108.61 4.25Q107.98 5.71 107.98 7.63L107.98 7.63Q107.98 9.70 108.68 11.50Q109.39 13.30 110.74 14.39Q112.08 15.48 113.90 15.48L113.90 15.48ZM135.26 0.14L135.24 1.01Q135.24 1.97 135.41 3.98L135.41 3.98Q134.90 4.22 134.21 4.20L134.21 4.20Q134.16 2.76 133.51 2.02Q132.86 1.27 131.50 1.27L131.50 1.27L130.22 1.27L130.22 13.39Q130.22 14.23 130.37 14.65Q130.51 15.07 130.91 15.25Q131.30 15.43 132.10 15.48L132.10 15.48Q132.22 15.82 132.22 16.51L132.22 16.51Q130.68 16.44 129.07 16.44L129.07 16.44Q127.27 16.44 125.93 16.51L125.93 16.51Q125.93 15.82 126.05 15.48L126.05 15.48Q126.84 15.43 127.25 15.25Q127.66 15.07 127.81 14.64Q127.97 14.21 127.97 13.39L127.97 13.39L127.97 1.27L126.74 1.27Q125.64 1.27 125.04 1.62Q124.44 1.97 124.19 2.56Q123.94 3.14 123.74 4.20L123.74 4.20Q122.95 4.20 122.59 3.98L122.59 3.98Q122.98 1.82 122.98 0.14L122.98 0.14Q124.32 0.22 129.10 0.22L129.10 0.22Q133.94 0.22 135.26 0.14L135.26 0.14Z" transform="translate(51, 6.28)"></path></svg>